<svg xmlns="http://www.w3.org/2000/svg" viewBox="0 0 128 128" role="img" aria-label="plank-wayland icon">
  <defs>
    <linearGradient id="background" x1="18" y1="14" x2="110" y2="118" gradientUnits="userSpaceOnUse">
      <stop offset="0" stop-color="#1b2444"/>
      <stop offset="0.52" stop-color="#111827"/>
      <stop offset="1" stop-color="#050814"/>
    </linearGradient>
    <linearGradient id="dock" x1="18" y1="71" x2="110" y2="105" gradientUnits="userSpaceOnUse">
      <stop offset="0" stop-color="#f7fbff" stop-opacity="0.96"/>
      <stop offset="0.5" stop-color="#bfe8ff" stop-opacity="0.88"/>
      <stop offset="1" stop-color="#7c3aed" stop-opacity="0.82"/>
    </linearGradient>
    <linearGradient id="rim" x1="27" y1="80" x2="100" y2="104" gradientUnits="userSpaceOnUse">
      <stop offset="0" stop-color="#67e8f9"/>
      <stop offset="0.48" stop-color="#a7f3d0"/>
      <stop offset="1" stop-color="#c084fc"/>
    </linearGradient>
    <radialGradient id="glow" cx="64" cy="72" r="56" gradientUnits="userSpaceOnUse">
      <stop offset="0" stop-color="#22d3ee" stop-opacity="0.55"/>
      <stop offset="0.54" stop-color="#6366f1" stop-opacity="0.16"/>
      <stop offset="1" stop-color="#020617" stop-opacity="0"/>
    </radialGradient>
    <filter id="softShadow" x="-20%" y="-20%" width="140%" height="150%">
      <feDropShadow dx="0" dy="8" stdDeviation="6" flood-color="#020617" flood-opacity="0.46"/>
    </filter>
  </defs>

  <rect width="128" height="128" rx="29" fill="url(#background)"/>
  <circle cx="64" cy="70" r="54" fill="url(#glow)"/>

  <path d="M24 46c11-13 25-20 40-20s29 7 40 20" fill="none" stroke="#38bdf8" stroke-width="5" stroke-linecap="round" opacity="0.22"/>
  <path d="M35 56c8-8 18-12 29-12s21 4 29 12" fill="none" stroke="#a78bfa" stroke-width="5" stroke-linecap="round" opacity="0.34"/>
  <path d="M48 65c5-4 10-6 16-6s11 2 16 6" fill="none" stroke="#5eead4" stroke-width="5" stroke-linecap="round" opacity="0.56"/>

  <g filter="url(#softShadow)">
    <path d="M27 80c1.9-5.9 7.4-9.9 13.6-9.9h46.8c6.2 0 11.7 4 13.6 9.9l7.2 22.1c1.1 3.4-1.4 6.9-5 6.9H24.8c-3.6 0-6.1-3.5-5-6.9L27 80Z" fill="url(#dock)"/>
    <path d="M32 83.4c1.1-3.4 4.3-5.8 7.9-5.8h48.2c3.6 0 6.8 2.4 7.9 5.8l4.6 14.1c.6 1.9-.8 3.8-2.8 3.8H30.2c-2 0-3.4-1.9-2.8-3.8L32 83.4Z" fill="#0f172a" opacity="0.82"/>
    <path d="M31.4 82.1c1.4-4.2 5.3-7 9.7-7h45.8c4.4 0 8.3 2.8 9.7 7l5.8 17.8" fill="none" stroke="url(#rim)" stroke-width="3.2" stroke-linecap="round" opacity="0.92"/>
  </g>

  <g>
    <rect x="39" y="81" width="14" height="14" rx="4.2" fill="#22d3ee"/>
    <rect x="57" y="78" width="14" height="17" rx="4.2" fill="#f8fafc"/>
    <rect x="75" y="81" width="14" height="14" rx="4.2" fill="#a78bfa"/>
    <circle cx="46" cy="102" r="2.6" fill="#22d3ee"/>
    <circle cx="64" cy="102" r="2.6" fill="#f8fafc"/>
    <circle cx="82" cy="102" r="2.6" fill="#a78bfa"/>
  </g>

  <path d="M64 36l3.3 6.6 7.3 1.1-5.3 5.1 1.2 7.2-6.5-3.4-6.5 3.4 1.2-7.2-5.3-5.1 7.3-1.1L64 36Z" fill="#fef08a" opacity="0.95"/>
</svg>
